<?xml version="1.0"?><svg width="803" height="985" xmlns="http://www.w3.org/2000/svg">
 <title>White Apple Logo on black background</title>
 <g>
  <title>Layer 1</title>
  <path id="svg_1" fill="#ffffff" fill-rule="evenodd" stroke="#221E20" stroke-width="0.5px" d="m776.200012,333.799988l0.299988,0.200012l0,1l0,1l-0.299988,0.200012l-0.200012,0.299988l-17.799988,13.299988q-17.700012,13.200012 -31.200012,27.200012q-13.5,14 -24,30.5q-10.5,16.5 -17,33q-6.5,16.5 -10,33.5q-3.5,17 -3.5,47q0,30 4,49q4,19 11.5,37q7.5,18 18,34q10.5,16 22,28q11.5,12 23.799988,22.200012q12.200012,10.299988 28.200012,19.799988q16,9.5 17.5,10l1.5,0.5l1,0.5l1,0.5l1,0.299988l1,0.200012l0,1l0,1l-13.200012,33q-13.299988,33 -27.599976,59.200012q-14.200012,26.299988 -33.200012,53.799988q-19,27.5 -34.200012,45.799988q-15.299988,18.200012 -28,30q-12.799988,11.700012 -26.299988,19.700012q-13.5,8 -27,12q-13.5,4 -17.5,4.5l-4,0.5l-1,0.299988l-1,0.200012l-8,-0.200012q-8,-0.299988 -24,-3.299988q-16,-3 -48.5,-14.5q-32.5,-11.5 -51,-15.5q-18.5,-4 -38,-4q-19.5,0 -35,3q-15.5,3 -45,13.5q-29.5,10.5 -48,15.5l-18.5,5l-4,0.5l-4,0.5l0,0.299988l0,0.200012l-10,0l-10,0l0,-0.200012l0,-0.299988l-3.5,-0.5l-3.5,-0.5l-2,-0.5q-2,-0.5 -7,-2q-5,-1.5 -17.5,-7.5q-12.5,-6 -27,-17.5q-14.5,-11.5 -27,-25q-12.5,-13.5 -33.300003,-41.200012q-20.699997,-27.799988 -35.399994,-51.599976q-14.800003,-23.700012 -28.600002,-52.400024q-13.700001,-28.799988 -25.200001,-60.799988q-11.5,-32 -19.5,-65q-8,-33 -12.3,-68l-4.2,-35l0,-22.5l0,-22.5l0.2,0l0.3,0l3,-26q3,-26 9,-49q6,-23 14.5,-42.5q8.5,-19.5 19.5,-37.5q11,-18 22.300003,-31.200012q11.199997,-13.299988 23.699997,-24.799988q12.5,-11.5 31.5,-23.5q19,-12 38.5,-20q19.5,-8 39,-12q19.5,-4 42.5,-4q23,0 47,6q24,6 60.5,19q36.5,13 43,14.5q6.5,1.5 15.5,1q9,-0.5 60.5,-18q51.5,-17.5 71.5,-21.5q20,-4 42.5,-4q22.5,0 47.5,5q25,5 43,12q18,7 33.799988,16.299988q15.700012,9.200012 29.200012,20.700012q13.5,11.5 24.5,24.5q11,13 12.299988,14.799988q1.200012,1.700012 1.400024,2z"/>
  <path id="svg_2" fill="#000000" fill-rule="evenodd" stroke="#FFFFFF" stroke-width="0.5px" d="m0,256l0,-256l295.5,0l295.5,0l0,0.2q0,0.3 -11.5,2.3q-11.5,2 -30,8.5q-18.5,6.5 -35,15.5q-16.5,9 -31,20q-14.5,11 -26,24q-11.5,13 -21.5,27.5q-10,14.5 -17.799988,30.800003q-7.700012,16.199997 -12.200012,34.199997q-4.5,18 -5.200012,41l-0.799988,23l16.5,-0.199997q16.5,-0.300003 34.5,-4.800003q18,-4.5 32.799988,-12.199997q14.700012,-7.800003 29.400024,-19.600006q14.799988,-11.699997 27,-25.399994q12.299988,-13.800003 23.299988,-31.300003q11,-17.5 18,-34q7,-16.5 11,-33q4,-16.5 5,-36q1,-19.5 0.700012,-25l-0.200012,-5.5l102.5,0l102.5,0l0,361.5l0,361.5l-1,-0.200012l-1,-0.299988l-1,-0.5l-1,-0.5l-1.5,-0.5q-1.5,-0.5 -17.5,-10q-16,-9.5 -28.200012,-19.799988q-12.299988,-10.200012 -23.799988,-22.200012q-11.5,-12 -22,-28q-10.5,-16 -18,-34q-7.5,-18 -11.5,-37q-4,-19 -4,-49q0,-30 3.5,-47q3.5,-17 10,-33.5q6.5,-16.5 17,-33q10.5,-16.5 24,-30.5q13.5,-14 31.200012,-27.200012l17.799988,-13.299988l0.200012,-0.299988l0.299988,-0.200012l0,-1l0,-1l-0.299988,-0.200012q-0.200012,-0.299988 -1.400024,-2q-1.299988,-1.799988 -12.299988,-14.799988q-11,-13 -24.5,-24.5q-13.5,-11.5 -29.200012,-20.700012q-15.799988,-9.299988 -33.799988,-16.299988q-18,-7 -43,-12q-25,-5 -47.5,-5q-22.5,0 -42.5,4q-20,4 -71.5,21.5q-51.5,17.5 -60.5,18q-9,0.5 -15.5,-1q-6.5,-1.5 -43,-14.5q-36.5,-13 -60.5,-19q-24,-6 -47,-6q-23,0 -42.5,4q-19.5,4 -39,12q-19.5,8 -38.5,20q-19,12 -31.5,23.5q-12.5,11.5 -23.699997,24.799988q-11.300003,13.200012 -22.300003,31.200012q-11,18 -19.5,37.5q-8.5,19.5 -14.5,42.5q-6,23 -9,49l-3,26l-0.3,0l-0.2,0l0,-256z"/>
  <path id="svg_3" fill="#000000" fill-rule="evenodd" stroke="#FFFFFF" stroke-width="0.5px" d="m0,771l0,-214l4.2,35q4.3,35 12.3,68q8,33 19.5,65q11.5,32 25.200001,60.799988q13.799999,28.700012 28.600002,52.400024q14.699997,23.799988 35.399994,51.599976q20.800003,27.700012 33.300003,41.200012q12.5,13.5 27,25q14.5,11.5 27,17.5q12.5,6 17.5,7.5q5,1.5 7,2l2,0.5l3.5,0.5l3.5,0.5l0,0.299988l0,0.200012l-123,0l-123,0l0,-214z"/>
  <path id="svg_4" fill="#ffffff" fill-rule="evenodd" stroke="#221E20" stroke-width="0.5px" d="m591,0.2l0,-0.2l3.5,0l3.5,0l0.200012,5.5q0.299988,5.5 -0.700012,25q-1,19.5 -5,36q-4,16.5 -11,33q-7,16.5 -18,34q-11,17.5 -23.299988,31.300003q-12.200012,13.699997 -27,25.399994q-14.700012,11.800003 -29.400024,19.600006q-14.799988,7.699997 -32.799988,12.199997q-18,4.5 -34.5,4.800003l-16.5,0.199997l0.799988,-23q0.700012,-23 5.200012,-41q4.5,-18 12.200012,-34.199997q7.799988,-16.300003 17.799988,-30.800003q10,-14.5 21.5,-27.5q11.5,-13 26,-24q14.5,-11 31,-20q16.5,-9 35,-15.5q18.5,-6.5 30,-8.5q11.5,-2 11.5,-2.3z"/>
  <path id="svg_5" fill="#000000" fill-rule="evenodd" stroke="#FFFFFF" stroke-width="0.5px" d="m789.799988,758l13.200012,-33l0,130l0,130l-106.5,0l-106.5,0l0,-0.5l0,-0.5l1,-0.200012l1,-0.299988l4,-0.5q4,-0.5 17.5,-4.5q13.5,-4 27,-12q13.5,-8 26.299988,-19.700012q12.700012,-11.799988 28,-30q15.200012,-18.299988 34.200012,-45.799988q19,-27.5 33.200012,-53.799988q14.299988,-26.200012 27.599976,-59.200012z"/>
  <path id="svg_6" fill="#000000" fill-rule="evenodd" stroke="#FEFEFE" stroke-width="0.5px" d="m582,983.799988l8,0.200012l0,0.5l0,0.5l-162,0l-162,0l0,-0.200012l0,-0.299988l4,-0.5l4,-0.5l18.5,-5q18.5,-5 48,-15.5q29.5,-10.5 45,-13.5q15.5,-3 35,-3q19.5,0 38,4q18.5,4 51,15.5q32.5,11.5 48.5,14.5q16,3 24,3.299988z"/>
 </g>
</svg>